<svg xmlns="http://www.w3.org/2000/svg" xmlns:xlink="http://www.w3.org/1999/xlink" id="Layer_1" xml:space="preserve" viewBox="0 0 1840 240.4" version="1.0" y="0px" x="0px" enable-background="new 0 0 1840 240.4">
  <style type="text/css">
    
	.st0{fill:#E4E0DE;}
	.st1{fill:#E8EAF2;}
	.st2{fill:#6E88BB;}
	.st3{fill:#91CABF;}
	.st4{fill:#233159;}
	.st5{fill:#22397F;}
	.st6{fill:#005FA1;}
	.st7{fill:#E3E0DE;}

  </style>
  <title>
    Group 4
  </title>
  <desc>
    Created with Sketch.
  </desc>
  <path id="Fill-3998" d="m1030.8 44.4c0 6.3 5.1 11.4 11.4 11.4s11.4-5.1 11.4-11.4-5.1-11.4-11.4-11.4-11.4 5.1-11.4 11.4M1030.8 92.4 1030.8 92.4" class="st0">
    <animate additive="replace" calcMode="linear" repeatCount="indefinite" attributeName="opacity" values="1;0.2;1" accumulate="none" dur="5s" restart="always" fill="remove"/>
  </path>
  <path id="Fill-4042" d="m1030.8 92.4c0 6.3 5.1 11.4 11.4 11.4s11.4-5.1 11.4-11.4c0-6.3-5.1-11.4-11.4-11.4s-11.4 5.1-11.4 11.4" class="st1"/>
  <path id="Fill-4044" d="m760.9 44.4c0 6.3 5.1 11.4 11.4 11.4s11.4-5.1 11.4-11.4-5.1-11.4-11.4-11.4c-6.3 0-11.4 5.1-11.4 11.4" class="st2">
    <animate additive="replace" calcMode="linear" repeatCount="indefinite" attributeName="opacity" values="1;0.2;1" accumulate="none" dur="5s" restart="always" fill="remove"/>
  </path>
  <path id="Fill-4068_1_" d="m950 12.4c0 6.3 5.1 11.4 11.4 11.4s11.4-5.1 11.4-11.4-5.1-11.4-11.4-11.4c-6.3 0-11.4 5.1-11.4 11.4" class="st1"/>
  <path id="Fill-4068_2_" d="m977 12.4c0 6.3 5.1 11.4 11.4 11.4s11.4-5.1 11.4-11.4-5.1-11.4-11.4-11.4c-6.3 0-11.4 5.1-11.4 11.4" class="st1">
    <animate additive="replace" calcMode="linear" repeatCount="indefinite" attributeName="opacity" values="1;0.2;1" accumulate="none" dur="5s" restart="always" fill="remove"/>
  </path>
  <path id="Fill-4068_3_" d="m1004 12.4c0 6.3 5.1 11.4 11.4 11.4s11.4-5.1 11.4-11.4-5.1-11.4-11.4-11.4c-6.3 0-11.4 5.1-11.4 11.4" class="st1"/>
  <path id="Fill-4068_4_" d="m1031 12.4c0 6.3 5.1 11.4 11.4 11.4s11.4-5.1 11.4-11.4-5.1-11.4-11.4-11.4-11.4 5.1-11.4 11.4" class="st1">
    <animate additive="replace" calcMode="linear" repeatCount="indefinite" attributeName="opacity" values="1;0.2;1" accumulate="none" dur="10s" restart="always" fill="remove"/>
  </path>
  <path id="Fill-4070_1_" d="m815 12.4c0 6.3 5.1 11.4 11.4 11.4s11.4-5.1 11.4-11.4-5.1-11.4-11.4-11.4c-6.3 0-11.4 5.1-11.4 11.4" class="st3">
    <animate additive="replace" calcMode="linear" repeatCount="indefinite" attributeName="opacity" values="1;0.2;1" accumulate="none" dur="5s" restart="always" fill="remove"/>
  </path>
  <path id="Fill-4072_1_" d="m680 12.4c0 6.3 5.1 11.4 11.4 11.4s11.4-5.1 11.4-11.4-5.1-11.4-11.4-11.4c-6.3 0-11.4 5.1-11.4 11.4" class="st4"/>
  <path id="Fill-4072_2_" d="m707 12.4c0 6.3 5.1 11.4 11.4 11.4s11.4-5.1 11.4-11.4-5.1-11.4-11.4-11.4c-6.3 0-11.4 5.1-11.4 11.4" class="st4">
    <animate additive="replace" calcMode="linear" repeatCount="indefinite" attributeName="opacity" values="1;0.2;1" accumulate="none" dur="5s" restart="always" fill="remove"/>
  </path>
  <path id="Fill-4074_1_" d="m1193 12.4c0 6.3 5.1 11.4 11.4 11.4s11.4-5.1 11.4-11.4-5.1-11.4-11.4-11.4-11.4 5.1-11.4 11.4" class="st3">
    <animate additive="replace" calcMode="linear" repeatCount="indefinite" attributeName="opacity" values="1;0.2;1" accumulate="none" dur="10s" restart="always" fill="remove"/>
  </path>
  <path id="Fill-4074_2_" d="m1222 12.4c0 6.3 5.1 11.4 11.4 11.4s11.4-5.1 11.4-11.4-5.1-11.4-11.4-11.4-11.4 5.1-11.4 11.4" class="st5"/>
  <path id="Fill-4074_3_" d="m1250 12.4c0 6.3 5.1 11.4 11.4 11.4s11.4-5.1 11.4-11.4-5.1-11.4-11.4-11.4-11.4 5.1-11.4 11.4" class="st5">
    <animate additive="replace" calcMode="linear" repeatCount="indefinite" attributeName="opacity" values="1;0.2;1" accumulate="none" dur="10s" restart="always" fill="remove"/>
  </path>
  <path id="Fill-4076_1_" d="m1058 12.4c0 6.3 5.1 11.4 11.4 11.4s11.4-5.1 11.4-11.4-5.1-11.4-11.4-11.4-11.4 5.1-11.4 11.4" class="st3"/>
  <path id="Fill-4078_1_" d="m923 12.4c0 6.3 5.1 11.4 11.4 11.4s11.4-5.1 11.4-11.4-5.1-11.4-11.4-11.4c-6.3 0-11.4 5.1-11.4 11.4" class="st2">
    <animate additive="replace" calcMode="linear" repeatCount="indefinite" attributeName="opacity" values="1;0.2;1" accumulate="none" dur="10s" restart="always" fill="remove"/>
  </path>
  <path id="Fill-4086" d="m1030.8 127.4c0 6.3 5.1 11.4 11.4 11.4s11.4-5.1 11.4-11.4c0-6.3-5.1-11.4-11.4-11.4s-11.4 5.1-11.4 11.4" class="st5"/>
  <path id="Fill-4090_1_" d="m626 12.4c0 6.3 5.1 11.4 11.4 11.4s11.4-5.1 11.4-11.4-5.1-11.4-11.4-11.4c-6.3 0-11.4 5.1-11.4 11.4" class="st5"/>
  <path id="Fill-4090_2_" d="m653 12.4c0 6.3 5.1 11.4 11.4 11.4s11.4-5.1 11.4-11.4-5.1-11.4-11.4-11.4c-6.3 0-11.4 5.1-11.4 11.4" class="st5">
    <animate additive="replace" calcMode="linear" repeatCount="indefinite" attributeName="opacity" values="0.2;1;0.2" accumulate="none" dur="9s" restart="always" fill="remove"/>
  </path>
  <path id="Fill-4098_1_" d="m734 12.4c0 6.3 5.1 11.4 11.4 11.4s11.4-5.1 11.4-11.4-5.1-11.4-11.4-11.4c-6.3 0-11.4 5.1-11.4 11.4" class="st0">
    <animate additive="replace" calcMode="linear" repeatCount="indefinite" attributeName="opacity" values="1;0.2;1" accumulate="none" dur="10s" restart="always" fill="remove"/>
  </path>
  <path id="Fill-4098_2_" d="m761 12.4c0 6.3 5.1 11.4 11.4 11.4s11.4-5.1 11.4-11.4-5.1-11.4-11.4-11.4c-6.3 0-11.4 5.1-11.4 11.4" class="st0">
    <animate additive="replace" calcMode="linear" repeatCount="indefinite" attributeName="opacity" values="1;0.2;1" accumulate="none" dur="10s" restart="always" fill="remove"/>
  </path>
  <path id="Fill-4098_3_" d="m788 12.4c0 6.3 5.1 11.4 11.4 11.4s11.4-5.1 11.4-11.4-5.1-11.4-11.4-11.4c-6.3 0-11.4 5.1-11.4 11.4" class="st0"/>
  <path id="Fill-4100_1_" d="m599 12.4c0 6.3 5.1 11.4 11.4 11.4s11.4-5.1 11.4-11.4-5.1-11.4-11.4-11.4c-6.3 0-11.4 5.1-11.4 11.4" class="st0">
    <animate additive="replace" calcMode="linear" repeatCount="indefinite" attributeName="opacity" values="0.2;1;0.2" accumulate="none" dur="5s" restart="always" fill="remove"/>
  </path>
  <path id="Fill-4066_1_" d="m1085 12.4c0 6.3 5.1 11.4 11.4 11.4s11.4-5.1 11.4-11.4-5.1-11.4-11.4-11.4-11.4 5.1-11.4 11.4" class="st5"/>
  <path id="Fill-4084_1_" d="m1166 12.4c0 6.3 5.1 11.4 11.4 11.4s11.4-5.1 11.4-11.4-5.1-11.4-11.4-11.4-11.4 5.1-11.4 11.4" class="st3"/>
  <path id="Fill-4092_1_" d="m1139 12.4c0 6.3 5.1 11.4 11.4 11.4s11.4-5.1 11.4-11.4-5.1-11.4-11.4-11.4-11.4 5.1-11.4 11.4" class="st0"/>
  <path id="Fill-4102_1_" d="m1112 12.4c0 6.3 5.1 11.4 11.4 11.4s11.4-5.1 11.4-11.4-5.1-11.4-11.4-11.4-11.4 5.1-11.4 11.4" class="st5">
    <animate additive="replace" calcMode="linear" repeatCount="indefinite" attributeName="opacity" values="0.2;1;0.2" accumulate="none" dur="8s" restart="always" fill="remove"/>
  </path>
  <path id="Fill-4106_1_" d="m842 12.4c0 6.3 5.1 11.4 11.4 11.4s11.4-5.1 11.4-11.4-5.1-11.4-11.4-11.4c-6.3 0-11.4 5.1-11.4 11.4" class="st5">
    <animate additive="replace" calcMode="linear" repeatCount="indefinite" attributeName="opacity" values="0;1;0" accumulate="none" dur="7s" restart="always" fill="remove"/>
  </path>
  <path id="Fill-4106_2_" d="m869 12.4c0 6.3 5.1 11.4 11.4 11.4s11.4-5.1 11.4-11.4-5.1-11.4-11.4-11.4c-6.3 0-11.4 5.1-11.4 11.4" class="st5">
    <animate additive="replace" calcMode="linear" repeatCount="indefinite" attributeName="opacity" values="0.2;1;0.2" accumulate="none" dur="9s" restart="always" fill="remove"/>
  </path>
  <path id="Fill-4106_3_" d="m896 12.4c0 6.3 5.1 11.4 11.4 11.4s11.4-5.1 11.4-11.4-5.1-11.4-11.4-11.4c-6.3 0-11.4 5.1-11.4 11.4" class="st5">
    <animate additive="replace" calcMode="linear" repeatCount="indefinite" attributeName="opacity" values="1;0.2;1" accumulate="none" dur="10s" restart="always" fill="remove"/>
  </path>
  <path id="Fill-4110" d="m949.8 40.2c0 6.3 5.1 11.4 11.4 11.4s11.4-5.1 11.4-11.4-5.1-11.4-11.4-11.4-11.4 5.1-11.4 11.4" class="st5"/>
  <path id="Fill-4112" d="m1192.7 40.2c0 6.3 5.1 11.4 11.4 11.4s11.4-5.1 11.4-11.4c0-6.3-5.1-11.4-11.4-11.4s-11.4 5.1-11.4 11.4" class="st5">
    <animate additive="replace" calcMode="linear" repeatCount="indefinite" attributeName="opacity" values="1;0.2;1" accumulate="none" dur="10s" restart="always" fill="remove"/>
  </path>
  <path id="Fill-4114" d="m1057.8 40.2c0 6.3 5.1 11.4 11.4 11.4s11.4-5.1 11.4-11.4c0-6.3-5.1-11.4-11.4-11.4s-11.4 5.1-11.4 11.4" class="st1"/>
  <path id="Fill-4116" d="m922.8 40.2c0 6.3 5.1 11.4 11.4 11.4s11.4-5.1 11.4-11.4-5.1-11.4-11.4-11.4-11.4 5.1-11.4 11.4" class="st2">
    <animate additive="replace" calcMode="linear" repeatCount="indefinite" attributeName="opacity" values="1;0.2;1" accumulate="none" dur="10s" restart="always" fill="remove"/>
  </path>
  <path id="Fill-4118" d="m787.9 40.2c0 6.3 5.1 11.4 11.4 11.4s11.4-5.1 11.4-11.4-5.1-11.4-11.4-11.4-11.4 5.1-11.4 11.4" class="st3"/>
  <path id="Fill-4120" d="m653 40.2c0 6.3 5.1 11.4 11.4 11.4s11.4-5.1 11.4-11.4c0-6.3-5.1-11.4-11.4-11.4s-11.4 5.1-11.4 11.4" class="st0">
    <animate additive="replace" calcMode="linear" repeatCount="indefinite" attributeName="opacity" values="1;0.2;1" accumulate="none" dur="10s" restart="always" fill="remove"/>
  </path>
  <path id="Fill-4122" d="m895.8 40.2c0 6.3 5.1 11.4 11.4 11.4s11.4-5.1 11.4-11.4-5.1-11.4-11.4-11.4c-6.2 0-11.4 5.1-11.4 11.4" class="st5"/>
  <path id="Fill-4124" d="m626 40.2c0 6.3 5.1 11.4 11.4 11.4s11.4-5.1 11.4-11.4-5.1-11.4-11.4-11.4-11.4 5.1-11.4 11.4" class="st3">
    <animate additive="replace" calcMode="linear" repeatCount="indefinite" attributeName="opacity" values="1;0.2;1" accumulate="none" dur="10s" restart="always" fill="remove"/>
  </path>
  <path id="Fill-4126" d="m1138.7 40.2c0 6.3 5.1 11.4 11.4 11.4s11.4-5.1 11.4-11.4c0-6.3-5.1-11.4-11.4-11.4s-11.4 5.1-11.4 11.4" class="st5"/>
  <path id="Fill-4128" d="m1003.8 40.2c0 6.3 5.1 11.4 11.4 11.4s11.4-5.1 11.4-11.4c0-6.3-5.1-11.4-11.4-11.4s-11.4 5.1-11.4 11.4" class="st5"/>
  <path id="Fill-4130" d="m868.9 40.2c0 6.3 5.1 11.4 11.4 11.4s11.4-5.1 11.4-11.4-5.1-11.4-11.4-11.4-11.4 5.1-11.4 11.4" class="st0"/>
  <path id="Fill-4132" d="m733.9 40.2c0 6.3 5.1 11.4 11.4 11.4s11.4-5.1 11.4-11.4-5.1-11.4-11.4-11.4-11.4 5.1-11.4 11.4" class="st5">
    <animate additive="replace" calcMode="linear" repeatCount="indefinite" attributeName="opacity" values="1;0.2;1" accumulate="none" dur="10s" restart="always" fill="remove"/>
  </path>
  <path id="Fill-4136" d="m1111.8 162c0 6.3 5.1 11.4 11.4 11.4 6.2 0 11.4-5.1 11.4-11.4s-5.2-11.4-11.4-11.4c-6.3 0-11.4 5.1-11.4 11.4" class="st3"/>
  <path id="Fill-4140" d="m841.9 40.2c0 6.3 5.1 11.4 11.4 11.4s11.4-5.1 11.4-11.4-5.1-11.4-11.4-11.4-11.4 5.1-11.4 11.4" class="st0"/>
  <path id="Fill-4142" d="m706.9 40.2c0 6.3 5.1 11.4 11.4 11.4s11.4-5.1 11.4-11.4-5.1-11.4-11.4-11.4-11.4 5.1-11.4 11.4" class="st0">
    <animate additive="replace" calcMode="linear" repeatCount="indefinite" attributeName="opacity" values="1;0.2;1" accumulate="none" dur="10s" restart="always" fill="remove"/>
  </path>
  <path id="Fill-4146" d="m949.8 97.3c0 6.3 5.1 11.4 11.4 11.4s11.4-5.1 11.4-11.4-5.1-11.4-11.4-11.4c-6.3 0-11.4 5.1-11.4 11.4" class="st5"/>
  <path id="Fill-4162" d="m1003.8 85.9c0 6.3 5.1 11.4 11.4 11.4s11.4-5.1 11.4-11.4-5.1-11.4-11.4-11.4-11.4 5.1-11.4 11.4" class="st5"/>
  <path id="Fill-4168" d="m599 93.4c0 6.3 5.1 11.4 11.4 11.4s11.4-5.1 11.4-11.4-5.1-11.4-11.4-11.4-11.4 5.1-11.4 11.4" class="st2"/>
  <path id="Fill-4170" d="m976.8 136.8c0 6.3 5.1 11.4 11.4 11.4s11.4-5.1 11.4-11.4-5.1-11.4-11.4-11.4-11.4 5.1-11.4 11.4" class="st5">
    <animate additive="replace" calcMode="linear" repeatCount="indefinite" attributeName="opacity" values="1;0.2;1" accumulate="none" dur="7s" restart="always" fill="remove"/>
  </path>
  <path id="Fill-4172" d="m1084.8 130.5c0 6.3 5.1 11.4 11.4 11.4s11.4-5.1 11.4-11.4c0-6.3-5.1-11.4-11.4-11.4s-11.4 5.1-11.4 11.4" class="st3"/>
  <path id="Fill-4176" d="m814.9 70.3c0 6.3 5.1 11.4 11.4 11.4s11.4-5.1 11.4-11.4c0-6.3-5.1-11.4-11.4-11.4s-11.4 5.1-11.4 11.4" class="st1"/>
  <path id="Fill-4178" d="m679.9 70.3c0 6.3 5.1 11.4 11.4 11.4s11.4-5.1 11.4-11.4-5.1-11.4-11.4-11.4-11.4 5.1-11.4 11.4" class="st5"/>
  <path id="Fill-4180" d="m1192.7 70.3c0 6.3 5.1 11.4 11.4 11.4s11.4-5.1 11.4-11.4c0-6.3-5.1-11.4-11.4-11.4s-11.4 5.1-11.4 11.4" class="st5"/>
  <path id="Fill-4182" d="m1057.8 70.3c0 6.3 5.1 11.4 11.4 11.4s11.4-5.1 11.4-11.4c0-6.3-5.1-11.4-11.4-11.4s-11.4 5.1-11.4 11.4" class="st5"/>
  <path id="Fill-4184" d="m922.8 70.3c0 6.3 5.1 11.4 11.4 11.4s11.4-5.1 11.4-11.4-5.1-11.4-11.4-11.4-11.4 5.1-11.4 11.4" class="st3"/>
  <path id="Fill-4186" d="m787.9 104.8c0 6.3 5.1 11.4 11.4 11.4s11.4-5.1 11.4-11.4-5.1-11.4-11.4-11.4-11.4 5.1-11.4 11.4" class="st4"/>
  <path id="Fill-4192" d="m895.8 70.3c0 6.3 5.1 11.4 11.4 11.4s11.4-5.1 11.4-11.4-5.1-11.4-11.4-11.4c-6.2 0-11.4 5.1-11.4 11.4" class="st0"/>
  <path id="Fill-4196" d="m733.9 101.5c0 6.3 5.1 11.4 11.4 11.4s11.4-5.1 11.4-11.4-5.1-11.4-11.4-11.4c-6.3 0-11.4 5.1-11.4 11.4" class="st2">
    <animate additive="replace" calcMode="linear" repeatCount="indefinite" attributeName="opacity" values="1;0.2;1" accumulate="none" dur="7s" restart="always" fill="remove"/>
  </path>
  <path id="Fill-4198" d="m841.9 70.3c0 6.3 5.1 11.4 11.4 11.4s11.4-5.1 11.4-11.4-5.1-11.4-11.4-11.4-11.4 5.1-11.4 11.4" class="st5"/>
  <path id="Fill-4200" d="m706.9 70.3c0 6.3 5.1 11.4 11.4 11.4s11.4-5.1 11.4-11.4-5.1-11.4-11.4-11.4-11.4 5.1-11.4 11.4" class="st1"/>
  <path id="Fill-4204" d="m814.9 97.3c0 6.3 5.1 11.4 11.4 11.4s11.4-5.1 11.4-11.4-5.1-11.4-11.4-11.4-11.4 5.1-11.4 11.4" class="st0"/>
  <path id="Fill-4206" d="m1192.7 130.5c0 6.3 5.1 11.4 11.4 11.4s11.4-5.1 11.4-11.4c0-6.3-5.1-11.4-11.4-11.4s-11.4 5.1-11.4 11.4" class="st3">
    <animate additive="replace" calcMode="linear" repeatCount="indefinite" attributeName="opacity" values="1;0.2;1" accumulate="none" dur="7s" restart="always" fill="remove"/>
  </path>
  <path id="Fill-4208" d="m1057.8 97.3c0 6.3 5.1 11.4 11.4 11.4s11.4-5.1 11.4-11.4-5.1-11.4-11.4-11.4-11.4 5.1-11.4 11.4" class="st0"/>
  <path id="Fill-4214" d="m895.8 97.3c0 6.3 5.1 11.4 11.4 11.4s11.4-5.1 11.4-11.4-5.1-11.4-11.4-11.4c-6.2 0-11.4 5.1-11.4 11.4" class="st5"/>
  <path id="Fill-4216" d="m1138.7 97.3c0 6.3 5.1 11.4 11.4 11.4s11.4-5.1 11.4-11.4-5.1-11.4-11.4-11.4-11.4 5.1-11.4 11.4" class="st0">
    <animate additive="replace" calcMode="linear" repeatCount="indefinite" attributeName="opacity" values="1;0.2;1" accumulate="none" dur="11s" restart="always" fill="remove"/>
  </path>
  <path id="Fill-4228" d="m922.8 159.4c0 6.3 5.1 11.4 11.4 11.4s11.4-5.1 11.4-11.4-5.1-11.4-11.4-11.4-11.4 5.1-11.4 11.4" class="st6"/>
  <path id="Fill-3998_1_" d="m1655.1 44.4c0 6.3 5.1 11.4 11.4 11.4s11.4-5.1 11.4-11.4-5.1-11.4-11.4-11.4-11.4 5.1-11.4 11.4" class="st0">
    <animate additive="replace" calcMode="linear" repeatCount="indefinite" attributeName="opacity" values="1;0.2;1" accumulate="none" dur="7s" restart="always" fill="remove"/>
  </path>
  <path id="Fill-4042_1_" d="m1655.1 92.4c0 6.3 5.1 11.4 11.4 11.4s11.4-5.1 11.4-11.4c0-6.3-5.1-11.4-11.4-11.4s-11.4 5.1-11.4 11.4" class="st1"/>
  <path id="Fill-4044_1_" d="m1385.2 44.4c0 6.3 5.1 11.4 11.4 11.4s11.4-5.1 11.4-11.4-5.1-11.4-11.4-11.4-11.4 5.1-11.4 11.4" class="st2"/>
  <path id="Fill-4066_3_" d="m1709 12.4c0 6.3 5.1 11.4 11.4 11.4s11.4-5.1 11.4-11.4-5.1-11.4-11.4-11.4-11.4 5.1-11.4 11.4" class="st5">
    <animate additive="replace" calcMode="linear" repeatCount="indefinite" attributeName="opacity" values="1;0.2;1" accumulate="none" dur="11s" restart="always" fill="remove"/>
  </path>
  <path id="Fill-4068_6_" d="m1601 12.4c0 6.3 5.1 11.4 11.4 11.4s11.4-5.1 11.4-11.4-5.1-11.4-11.4-11.4-11.4 5.1-11.4 11.4" class="st1"/>
  <path id="Fill-4070_3_" d="m1439 12.4c0 6.3 5.1 11.4 11.4 11.4s11.4-5.1 11.4-11.4-5.1-11.4-11.4-11.4-11.4 5.1-11.4 11.4" class="st3"/>
  <path id="Fill-4072_4_" d="m1304 13.4c0 6.3 5.1 11.4 11.4 11.4s11.4-5.1 11.4-11.4-5.1-11.4-11.4-11.4-11.4 5.1-11.4 11.4" class="st4"/>
  <path id="Fill-4072_5_" d="m1331 12.4c0 6.3 5.1 11.4 11.4 11.4s11.4-5.1 11.4-11.4-5.1-11.4-11.4-11.4-11.4 5.1-11.4 11.4" class="st4"/>
  <path id="Fill-4074_5_" d="m1817 12.4c0 6.3 5.1 11.4 11.4 11.4s11.4-5.1 11.4-11.4-5.1-11.4-11.4-11.4-11.4 5.1-11.4 11.4" class="st5"/>
  <path id="Fill-4076_3_" d="m1682 12.4c0 6.3 5.1 11.4 11.4 11.4s11.4-5.1 11.4-11.4-5.1-11.4-11.4-11.4-11.4 5.1-11.4 11.4" class="st3"/>
  <path id="Fill-4078_3_" d="m1547 12.4c0 6.3 5.1 11.4 11.4 11.4s11.4-5.1 11.4-11.4-5.1-11.4-11.4-11.4-11.4 5.1-11.4 11.4" class="st5">
    <animate additive="replace" calcMode="linear" repeatCount="indefinite" attributeName="opacity" values="1;0.2;1" accumulate="none" dur="10s" restart="always" fill="remove"/>
  </path>
  <path id="Fill-4078_4_" d="m1574 12.4c0 6.3 5.1 11.4 11.4 11.4s11.4-5.1 11.4-11.4-5.1-11.4-11.4-11.4-11.4 5.1-11.4 11.4" class="st5"/>
  <path id="Fill-4080_2_" d="m1412 12.4c0 6.3 5.1 11.4 11.4 11.4s11.4-5.1 11.4-11.4-5.1-11.4-11.4-11.4-11.4 5.1-11.4 11.4" class="st5"/>
  <path id="Fill-4082_2_" d="m1277 12.4c0 6.3 5.1 11.4 11.4 11.4s11.4-5.1 11.4-11.4-5.1-11.4-11.4-11.4-11.4 5.1-11.4 11.4" class="st1"/>
  <path id="Fill-4084_3_" d="m1790 12.4c0 6.3 5.1 11.4 11.4 11.4s11.4-5.1 11.4-11.4-5.1-11.4-11.4-11.4-11.4 5.1-11.4 11.4" class="st3"/>
  <path id="Fill-4086_1_" d="m1655.1 136.9c0 6.3 5.1 11.4 11.4 11.4s11.4-5.1 11.4-11.4c0-6.3-5.1-11.4-11.4-11.4s-11.4 5.1-11.4 11.4" class="st5"/>
  <path id="Fill-4088_2_" d="m1520 12.4c0 6.3 5.1 11.4 11.4 11.4s11.4-5.1 11.4-11.4-5.1-11.4-11.4-11.4-11.4 5.1-11.4 11.4" class="st0"/>
  <path id="Fill-4094_2_" d="m1628 12.4c0 6.3 5.1 11.4 11.4 11.4s11.4-5.1 11.4-11.4-5.1-11.4-11.4-11.4-11.4 5.1-11.4 11.4" class="st1"/>
  <path id="Fill-4094_3_" d="m1655 12.4c0 6.3 5.1 11.4 11.4 11.4s11.4-5.1 11.4-11.4-5.1-11.4-11.4-11.4-11.4 5.1-11.4 11.4" class="st1">
    <animate additive="replace" calcMode="linear" repeatCount="indefinite" attributeName="opacity" values="1;0.2;1" accumulate="none" dur="10s" restart="always" fill="remove"/>
  </path>
  <path id="Fill-4098_5_" d="m1358 12.4c0 6.3 5.1 11.4 11.4 11.4s11.4-5.1 11.4-11.4-5.1-11.4-11.4-11.4-11.4 5.1-11.4 11.4" class="st0"/>
  <path id="Fill-4098_6_" d="m1385 12.4c0 6.3 5.1 11.4 11.4 11.4s11.4-5.1 11.4-11.4-5.1-11.4-11.4-11.4-11.4 5.1-11.4 11.4" class="st0"/>
  <path id="Fill-4102_3_" d="m1736 12.4c0 6.3 5.1 11.4 11.4 11.4s11.4-5.1 11.4-11.4-5.1-11.4-11.4-11.4-11.4 5.1-11.4 11.4" class="st5">
    <animate additive="replace" calcMode="linear" repeatCount="indefinite" attributeName="opacity" values="1;0.2;1" accumulate="none" dur="10s" restart="always" fill="remove"/>
  </path>
  <path id="Fill-4106_5_" d="m1466 12.4c0 6.3 5.1 11.4 11.4 11.4s11.4-5.1 11.4-11.4-5.1-11.4-11.4-11.4-11.4 5.1-11.4 11.4" class="st5"/>
  <path id="Fill-4106_6_" d="m1493 12.4c0 6.3 5.1 11.4 11.4 11.4s11.4-5.1 11.4-11.4-5.1-11.4-11.4-11.4-11.4 5.1-11.4 11.4" class="st5"/>
  <path id="Fill-4110_1_" d="m1574.1 40.2c0 6.3 5.1 11.4 11.4 11.4s11.4-5.1 11.4-11.4c0-6.3-5.1-11.4-11.4-11.4s-11.4 5.1-11.4 11.4" class="st5"/>
  <path id="Fill-4112_1_" d="m1817 40.2c0 6.3 5.1 11.4 11.4 11.4s11.4-5.1 11.4-11.4c0-6.3-5.1-11.4-11.4-11.4s-11.4 5.1-11.4 11.4" class="st5"/>
  <path id="Fill-4114_1_" d="m1682.1 40.2c0 6.3 5.1 11.4 11.4 11.4s11.4-5.1 11.4-11.4c0-6.3-5.1-11.4-11.4-11.4s-11.4 5.1-11.4 11.4" class="st1">
    <animate additive="replace" calcMode="linear" repeatCount="indefinite" attributeName="opacity" values="1;0.2;1" accumulate="none" dur="10s" restart="always" fill="remove"/>
  </path>
  <path id="Fill-4116_1_" d="m1547.1 40.2c0 6.3 5.1 11.4 11.4 11.4s11.4-5.1 11.4-11.4c0-6.3-5.1-11.4-11.4-11.4s-11.4 5.1-11.4 11.4" class="st3"/>
  <path id="Fill-4118_1_" d="m1412.2 40.2c0 6.3 5.1 11.4 11.4 11.4s11.4-5.1 11.4-11.4c0-6.3-5.1-11.4-11.4-11.4s-11.4 5.1-11.4 11.4" class="st3"/>
  <path id="Fill-4120_1_" d="m1277.2 40.2c0 6.3 5.1 11.4 11.4 11.4s11.4-5.1 11.4-11.4c0-6.3-5.1-11.4-11.4-11.4s-11.4 5.1-11.4 11.4" class="st0">
    <animate additive="replace" calcMode="linear" repeatCount="indefinite" attributeName="opacity" values="1;0.2;1" accumulate="none" dur="10s" restart="always" fill="remove"/>
  </path>
  <path id="Fill-4122_1_" d="m1520.1 40.2c0 6.3 5.1 11.4 11.4 11.4s11.4-5.1 11.4-11.4c0-6.3-5.1-11.4-11.4-11.4s-11.4 5.1-11.4 11.4" class="st5"/>
  <path id="Fill-4124_1_" d="m1250.3 40.2c0 6.3 5.1 11.4 11.4 11.4 6.2 0 11.4-5.1 11.4-11.4s-5.2-11.4-11.4-11.4c-6.3 0-11.4 5.1-11.4 11.4" class="st3"/>
  <path id="Fill-4126_1_" d="m1763 40.2c0 6.3 5.1 11.4 11.4 11.4s11.4-5.1 11.4-11.4c0-6.3-5.1-11.4-11.4-11.4s-11.4 5.1-11.4 11.4" class="st5"/>
  <path id="Fill-4128_1_" d="m1628.1 40.2c0 6.3 5.1 11.4 11.4 11.4s11.4-5.1 11.4-11.4c0-6.3-5.1-11.4-11.4-11.4s-11.4 5.1-11.4 11.4" class="st5"/>
  <path id="Fill-4130_1_" d="m1493.1 40.2c0 6.3 5.2 11.4 11.4 11.4 6.3 0 11.4-5.1 11.4-11.4s-5.1-11.4-11.4-11.4c-6.2 0-11.4 5.1-11.4 11.4" class="st0"/>
  <path id="Fill-4132_1_" d="m1358.2 40.2c0 6.3 5.1 11.4 11.4 11.4s11.4-5.1 11.4-11.4c0-6.3-5.1-11.4-11.4-11.4s-11.4 5.1-11.4 11.4" class="st5"/>
  <path id="Fill-4136_1_" d="m1736 162c0 6.3 5.1 11.4 11.4 11.4s11.4-5.1 11.4-11.4c0-6.3-5.1-11.4-11.4-11.4s-11.4 5.1-11.4 11.4" class="st3"/>
  <path id="Fill-4140_1_" d="m1466.2 40.2c0 6.3 5.1 11.4 11.4 11.4s11.4-5.1 11.4-11.4c0-6.3-5.1-11.4-11.4-11.4s-11.4 5.1-11.4 11.4" class="st0"/>
  <path id="Fill-4142_1_" d="m1331.2 40.2c0 6.3 5.1 11.4 11.4 11.4s11.4-5.1 11.4-11.4c0-6.3-5.1-11.4-11.4-11.4s-11.4 5.1-11.4 11.4" class="st0">
    <animate additive="replace" calcMode="linear" repeatCount="indefinite" attributeName="opacity" values="1;0.2;1" accumulate="none" dur="3s" restart="always" fill="remove"/>
  </path>
  <path id="Fill-4146_1_" d="m1574.1 115.3c0 6.3 5.1 11.4 11.4 11.4s11.4-5.1 11.4-11.4-5.1-11.4-11.4-11.4-11.4 5.1-11.4 11.4" class="st5"/>
  <path id="Fill-4162_1_" d="m1628.1 85.9c0 6.3 5.1 11.4 11.4 11.4s11.4-5.1 11.4-11.4-5.1-11.4-11.4-11.4-11.4 5.1-11.4 11.4" class="st5">
    <animate additive="replace" calcMode="linear" repeatCount="indefinite" attributeName="opacity" values="1;0.2;1" accumulate="none" dur="3s" restart="always" fill="remove"/>
  </path>
  <path id="Fill-4168_1_" d="m1223.3 93.4c0 6.3 5.1 11.4 11.4 11.4s11.4-5.1 11.4-11.4c0-6.3-5.1-11.4-11.4-11.4s-11.4 5.1-11.4 11.4" class="st2"/>
  <path id="Fill-4170_1_" d="m1601.1 207.4c0 6.3 5.1 11.4 11.4 11.4s11.4-5.1 11.4-11.4-5.1-11.4-11.4-11.4-11.4 5.1-11.4 11.4" class="st5">
    <animate additive="replace" calcMode="linear" repeatCount="indefinite" attributeName="opacity" values="1;0.2;1" accumulate="none" dur="3s" restart="always" fill="remove"/>
  </path>
  <path id="Fill-4172_1_" d="m1709.1 130.5c0 6.3 5.1 11.4 11.4 11.4 6.2 0 11.4-5.1 11.4-11.4s-5.2-11.4-11.4-11.4c-6.3-0.1-11.4 5.1-11.4 11.4" class="st3"/>
  <path id="Fill-4176_1_" d="m1439.2 70.3c0 6.3 5.1 11.4 11.4 11.4s11.4-5.1 11.4-11.4c0-6.3-5.1-11.4-11.4-11.4s-11.4 5.1-11.4 11.4" class="st1"/>
  <path id="Fill-4178_1_" d="m1304.2 70.3c0 6.3 5.1 11.4 11.4 11.4s11.4-5.1 11.4-11.4c0-6.3-5.1-11.4-11.4-11.4s-11.4 5.1-11.4 11.4" class="st5"/>
  <path id="Fill-4180_1_" d="m1817 70.3c0 6.3 5.1 11.4 11.4 11.4s11.4-5.1 11.4-11.4c0-6.3-5.1-11.4-11.4-11.4s-11.4 5.1-11.4 11.4" class="st5"/>
  <path id="Fill-4182_1_" d="m1682.1 70.3c0 6.3 5.1 11.4 11.4 11.4s11.4-5.1 11.4-11.4c0-6.3-5.1-11.4-11.4-11.4s-11.4 5.1-11.4 11.4" class="st5"/>
  <path id="Fill-4184_1_" d="m1547.1 70.3c0 6.3 5.1 11.4 11.4 11.4s11.4-5.1 11.4-11.4c0-6.3-5.1-11.4-11.4-11.4s-11.4 5.1-11.4 11.4" class="st3"/>
  <path id="Fill-4186_1_" d="m1412.2 104.8c0 6.3 5.1 11.4 11.4 11.4s11.4-5.1 11.4-11.4c0-6.3-5.1-11.4-11.4-11.4s-11.4 5.1-11.4 11.4" class="st4">
    <animate additive="replace" calcMode="linear" repeatCount="indefinite" attributeName="opacity" values="1;0.2;1" accumulate="none" dur="3s" restart="always" fill="remove"/>
  </path>
  <path id="Fill-4190_1_" d="m1790 226c0 6.3 5.1 11.4 11.4 11.4s11.4-5.1 11.4-11.4-5.1-11.4-11.4-11.4-11.4 5.1-11.4 11.4" class="st3"/>
  <path id="Fill-4192_1_" d="m1520.1 70.3c0 6.3 5.1 11.4 11.4 11.4s11.4-5.1 11.4-11.4c0-6.3-5.1-11.4-11.4-11.4s-11.4 5.1-11.4 11.4" class="st0">
    <animate additive="replace" calcMode="linear" repeatCount="indefinite" attributeName="opacity" values="1;0.2;1" accumulate="none" dur="3s" restart="always" fill="remove"/>
  </path>
  <path id="Fill-4196_1_" d="m1358.2 101.5c0 6.3 5.1 11.4 11.4 11.4s11.4-5.1 11.4-11.4-5.1-11.4-11.4-11.4-11.4 5.1-11.4 11.4" class="st2"/>
  <path id="Fill-4198_1_" d="m1466.2 70.3c0 6.3 5.1 11.4 11.4 11.4s11.4-5.1 11.4-11.4c0-6.3-5.1-11.4-11.4-11.4s-11.4 5.1-11.4 11.4" class="st5"/>
  <path id="Fill-4200_1_" d="m1331.2 70.3c0 6.3 5.1 11.4 11.4 11.4s11.4-5.1 11.4-11.4c0-6.3-5.1-11.4-11.4-11.4s-11.4 5.1-11.4 11.4" class="st1">
    <animate additive="replace" calcMode="linear" repeatCount="indefinite" attributeName="opacity" values="1;0.2;1" accumulate="none" dur="2.5s" restart="always" fill="remove"/>
  </path>
  <path id="Fill-4204_1_" d="m1439.2 97.3c0 6.3 5.1 11.4 11.4 11.4s11.4-5.1 11.4-11.4-5.1-11.4-11.4-11.4-11.4 5.1-11.4 11.4" class="st0"/>
  <path id="Fill-4204_2_" d="m1358 130.4c0 6.3 5.1 11.4 11.4 11.4s11.4-5.1 11.4-11.4c0-6.3-5.1-11.4-11.4-11.4s-11.4 5.1-11.4 11.4" class="st0"/>
  <path id="Fill-4206_1_" d="m1817 130.5c0 6.3 5.1 11.4 11.4 11.4s11.4-5.1 11.4-11.4c0-6.3-5.1-11.4-11.4-11.4s-11.4 5.1-11.4 11.4" class="st3">
    <animate additive="replace" calcMode="linear" repeatCount="indefinite" attributeName="opacity" values="1;0.2;1" accumulate="none" dur="3s" restart="always" fill="remove"/>
  </path>
  <path id="Fill-4208_1_" d="m1682.1 97.3c0 6.3 5.1 11.4 11.4 11.4s11.4-5.1 11.4-11.4-5.1-11.4-11.4-11.4-11.4 5.1-11.4 11.4" class="st0"/>
  <path id="Fill-4214_1_" d="m1520.1 97.3c0 6.3 5.1 11.4 11.4 11.4s11.4-5.1 11.4-11.4-5.1-11.4-11.4-11.4-11.4 5.1-11.4 11.4" class="st5"/>
  <path id="Fill-4216_1_" d="m1772.5 106.9c0 6.3 5.1 11.4 11.4 11.4s11.4-5.1 11.4-11.4-5.1-11.4-11.4-11.4-11.4 5-11.4 11.4" class="st0">
    <animate additive="replace" calcMode="linear" repeatCount="indefinite" attributeName="opacity" values="1;0.2;1" accumulate="none" dur="6s" restart="always" fill="remove"/>
  </path>
  <path id="Fill-4228_1_" d="m1547.1 159.4c0 6.3 5.1 11.4 11.4 11.4s11.4-5.1 11.4-11.4c0-6.3-5.1-11.4-11.4-11.4s-11.4 5.1-11.4 11.4" class="st6"/>
  <path id="Fill-3998_2_" d="m185.4 44.1c0 6.3-5.1 11.4-11.4 11.4s-11.4-5.1-11.4-11.4 5.1-11.4 11.4-11.4c6.3 0 11.4 5.1 11.4 11.4" class="st0"/>
  <path id="Fill-4042_2_" d="m185.4 92c0 6.3-5.1 11.4-11.4 11.4s-11.4-5.1-11.4-11.4 5.1-11.4 11.4-11.4c6.3 0 11.4 5.1 11.4 11.4" class="st1">
    <animate additive="replace" calcMode="linear" repeatCount="indefinite" attributeName="opacity" values="1;0.2;1" accumulate="none" dur="6s" restart="always" fill="remove"/>
  </path>
  <path id="Fill-4044_2_" d="m512.6 44.1c0 6.3-5.1 11.4-11.4 11.4s-11.4-5.1-11.4-11.4 5.1-11.4 11.4-11.4c6.3 0 11.4 5.1 11.4 11.4" class="st2"/>
  <path id="Fill-4070_5_" d="m458.8 12.4c0 6.3-5.1 11.4-11.4 11.4s-11.4-5.1-11.4-11.4 5.1-11.4 11.4-11.4 11.4 5.1 11.4 11.4" class="st3"/>
  <path id="Fill-4072_7_" d="m593.8 12.4c0 6.3-5.1 11.4-11.4 11.4s-11.4-5.1-11.4-11.4 5.1-11.4 11.4-11.4c6.3 0 11.4 5.1 11.4 11.4" class="st4"/>
  <path id="Fill-4074_7_" d="m23.8 12.4c0 6.3-5.1 11.4-11.4 11.4s-11.4-5.1-11.4-11.4 5.1-11.4 11.4-11.4c6.3 0 11.4 5.1 11.4 11.4" class="st5"/>
  <path id="Fill-4078_6_" d="m347.8 12.4c0 6.3-5.1 11.4-11.4 11.4s-11.4-5.1-11.4-11.4 5.1-11.4 11.4-11.4c6.3 0 11.4 5.1 11.4 11.4" class="st5"/>
  <path id="Fill-4078_7_" d="m375.8 12.4c0 6.3-5.1 11.4-11.4 11.4s-11.4-5.1-11.4-11.4 5.1-11.4 11.4-11.4c6.3 0 11.4 5.1 11.4 11.4" class="st5"/>
  <path id="Fill-4078_8_" d="m319.8 12.4c0 6.3-5.1 11.4-11.4 11.4s-11.4-5.1-11.4-11.4 5.1-11.4 11.4-11.4c6.3 0 11.4 5.1 11.4 11.4" class="st5"/>
  <path id="Fill-4080_4_" d="m485.8 12.4c0 6.3-5.1 11.4-11.4 11.4s-11.4-5.1-11.4-11.4 5.1-11.4 11.4-11.4c6.3 0 11.4 5.1 11.4 11.4" class="st5"/>
  <path id="Fill-4080_5_" d="m512.8 12.4c0 6.3-5.1 11.4-11.4 11.4s-11.4-5.1-11.4-11.4 5.1-11.4 11.4-11.4c6.3 0 11.4 5.1 11.4 11.4" class="st5"/>
  <path id="Fill-4098_8_" d="m539.8 12.4c0 6.3-5.1 11.4-11.4 11.4s-11.4-5.1-11.4-11.4 5.1-11.4 11.4-11.4c6.3 0 11.4 5.1 11.4 11.4" class="st0"/>
  <path id="Fill-4066_5_" d="m131.8 12.4c0 6.3-5.1 11.4-11.4 11.4s-11.4-5.1-11.4-11.4 5.1-11.4 11.4-11.4c6.3 0 11.4 5.1 11.4 11.4" class="st5"/>
  <path id="Fill-4076_5_" d="m157.8 12.4c0 6.3-5.1 11.4-11.4 11.4s-11.4-5.1-11.4-11.4 5.1-11.4 11.4-11.4c6.3 0 11.4 5.1 11.4 11.4" class="st3">
    <animate additive="replace" calcMode="linear" repeatCount="indefinite" attributeName="opacity" values="1;0.2;1" accumulate="none" dur="6s" restart="always" fill="remove"/>
  </path>
  <path id="Fill-4084_5_" d="m50.8 12.4c0 6.3-5.1 11.4-11.4 11.4s-11.4-5.1-11.4-11.4 5.1-11.4 11.4-11.4c6.3 0 11.4 5.1 11.4 11.4" class="st3"/>
  <path id="Fill-4092_4_" d="m76.8 12.4c0 6.3-5.1 11.4-11.4 11.4s-11.4-5.1-11.4-11.4 5.1-11.4 11.4-11.4c6.3 0 11.4 5.1 11.4 11.4" class="st0">
    <animate additive="replace" calcMode="linear" repeatCount="indefinite" attributeName="opacity" values="1;0.2;1" accumulate="none" dur="10s" restart="always" fill="remove"/>
  </path>
  <path id="Fill-4094_5_" d="m212.8 12.4c0 6.3-5.1 11.4-11.4 11.4s-11.4-5.1-11.4-11.4 5.1-11.4 11.4-11.4c6.3 0 11.4 5.1 11.4 11.4" class="st1"/>
  <path id="Fill-4094_6_" d="m239.8 12.4c0 6.3-5.1 11.4-11.4 11.4s-11.4-5.1-11.4-11.4 5.1-11.4 11.4-11.4c6.3 0 11.4 5.1 11.4 11.4" class="st1">
    <animate additive="replace" calcMode="linear" repeatCount="indefinite" attributeName="opacity" values="1;0.2;1" accumulate="none" dur="6s" restart="always" fill="remove"/>
  </path>
  <path id="Fill-4094_7_" d="m266.8 12.4c0 6.3-5.1 11.4-11.4 11.4s-11.4-5.1-11.4-11.4 5.1-11.4 11.4-11.4c6.3 0 11.4 5.1 11.4 11.4" class="st1"/>
  <path id="Fill-4094_8_" d="m185.8 12.4c0 6.3-5.1 11.4-11.4 11.4s-11.4-5.1-11.4-11.4 5.1-11.4 11.4-11.4c6.3 0 11.4 5.1 11.4 11.4" class="st1"/>
  <path id="Fill-4102_5_" d="m104.8 12.4c0 6.3-5.1 11.4-11.4 11.4s-11.4-5.1-11.4-11.4 5.1-11.4 11.4-11.4c6.3 0 11.4 5.1 11.4 11.4" class="st5">
    <animate additive="replace" calcMode="linear" repeatCount="indefinite" attributeName="opacity" values="1;0.2;1" accumulate="none" dur="10s" restart="always" fill="remove"/>
  </path>
  <path id="Fill-4106_8_" d="m431.8 12.4c0 6.3-5.1 11.4-11.4 11.4s-11.4-5.1-11.4-11.4 5.1-11.4 11.4-11.4c6.3 0 11.4 5.1 11.4 11.4" class="st5"/>
  <path id="Fill-4108_3_" d="m565.8 12.4c0 6.3-5.1 11.4-11.4 11.4s-11.4-5.1-11.4-11.4 5.1-11.4 11.4-11.4c6.3 0 11.4 5.1 11.4 11.4" class="st1">
    <animate additive="replace" calcMode="linear" repeatCount="indefinite" attributeName="opacity" values="1;0.2;1" accumulate="none" dur="10s" restart="always" fill="remove"/>
  </path>
  <path id="Fill-4110_2_" d="m266.3 40.5c0 6.3-5.1 11.4-11.4 11.4s-11.4-5.1-11.4-11.4 5.1-11.4 11.4-11.4c6.3 0 11.4 5.1 11.4 11.4" class="st5"/>
  <path id="Fill-4112_2_" d="m23.7 40.5c0 6.3-5.1 11.4-11.4 11.4s-11.4-5.1-11.4-11.4 5.1-11.4 11.4-11.4c6.3 0 11.4 5.1 11.4 11.4" class="st7"/>
  <path id="Fill-4114_2_" d="m158.2 40.5c0 6.3-5.1 11.4-11.4 11.4s-11.4-5.1-11.4-11.4 5.1-11.4 11.4-11.4c6.3 0 11.4 5.1 11.4 11.4" class="st1"/>
  <path id="Fill-4116_2_" d="m348.1 40.5c0 6.3-5.1 11.4-11.4 11.4s-11.4-5.1-11.4-11.4 5.1-11.4 11.4-11.4c6.3 0 11.4 5.1 11.4 11.4" class="st3">
    <animate additive="replace" calcMode="linear" repeatCount="indefinite" attributeName="opacity" values="1;0.2;1" accumulate="none" dur="3s" restart="always" fill="remove"/>
  </path>
  <path id="Fill-4118_2_" d="m485.4 40.5c0 6.3-5.1 11.4-11.4 11.4s-11.4-5.1-11.4-11.4 5.1-11.4 11.4-11.4c6.2 0 11.4 5.1 11.4 11.4" class="st3"/>
  <path id="Fill-4122_2_" d="m376.3 40.5c0 6.3-5.1 11.4-11.4 11.4s-11.4-5.1-11.4-11.4 5.1-11.4 11.4-11.4 11.4 5.1 11.4 11.4" class="st5">
    <animate additive="replace" calcMode="linear" repeatCount="indefinite" attributeName="opacity" values="1;0.2;1" accumulate="none" dur="3s" restart="always" fill="remove"/>
  </path>
  <path id="Fill-4126_2_" d="m77.3 40.5c0 6.3-5.1 11.4-11.4 11.4s-11.4-5.1-11.4-11.4 5.1-11.4 11.4-11.4c6.3 0 11.4 5.1 11.4 11.4" class="st5"/>
  <path id="Fill-4128_2_" d="m212.7 40.5c0 6.3-5.1 11.4-11.4 11.4s-11.4-5.1-11.4-11.4 5.1-11.4 11.4-11.4c6.3 0 11.4 5.1 11.4 11.4" class="st5">
    <animate additive="replace" calcMode="linear" repeatCount="indefinite" attributeName="opacity" values="1;0.2;1" accumulate="none" dur="3s" restart="always" fill="remove"/>
  </path>
  <path id="Fill-4130_2_" d="m404.5 40.5c0 6.3-5.1 11.4-11.4 11.4s-11.4-5.1-11.4-11.4 5.1-11.4 11.4-11.4c6.3 0 11.4 5.1 11.4 11.4" class="st0"/>
  <path id="Fill-4132_2_" d="m539.9 40.5c0 6.3-5.1 11.4-11.4 11.4s-11.4-5.1-11.4-11.4 5.1-11.4 11.4-11.4c6.3 0 11.4 5.1 11.4 11.4" class="st5">
    <animate additive="replace" calcMode="linear" repeatCount="indefinite" attributeName="opacity" values="1;0.2;1" accumulate="none" dur="3s" restart="always" fill="remove"/>
  </path>
  <path id="Fill-4140_2_" d="m431.7 40.5c0 6.3-5.1 11.4-11.4 11.4s-11.4-5.1-11.4-11.4 5.1-11.4 11.4-11.4 11.4 5.1 11.4 11.4" class="st0"/>
  <path id="Fill-4142_2_" d="m566.2 40.5c0 6.3-5.1 11.4-11.4 11.4s-11.4-5.1-11.4-11.4 5.1-11.4 11.4-11.4 11.4 5.1 11.4 11.4" class="st0">
    <animate additive="replace" calcMode="linear" repeatCount="indefinite" attributeName="opacity" values="1;0.2;1" accumulate="none" dur="3s" restart="always" fill="remove"/>
  </path>
  <path id="Fill-4176_2_" d="m459 70.2c0 6.3-5.1 11.4-11.4 11.4s-11.4-5.1-11.4-11.4 5.1-11.4 11.4-11.4c6.3-0.1 11.4 5.1 11.4 11.4" class="st1"/>
  <path id="Fill-4178_2_" d="m593.5 70.2c0 6.3-5.1 11.4-11.4 11.4s-11.4-5.1-11.4-11.4 5.1-11.4 11.4-11.4c6.3-0.1 11.4 5.1 11.4 11.4" class="st5">
    <animate additive="replace" calcMode="linear" repeatCount="indefinite" attributeName="opacity" values="1;0.2;1" accumulate="none" dur="5s" restart="always" fill="remove"/>
  </path>
  <path id="Fill-4184_2_" d="m348.1 70.2c0 6.3-5.1 11.4-11.4 11.4s-11.4-5.1-11.4-11.4 5.1-11.4 11.4-11.4c6.3-0.1 11.4 5.1 11.4 11.4" class="st3"/>
  <path id="Fill-4192_2_" d="m376.3 70.2c0 6.3-5.1 11.4-11.4 11.4s-11.4-5.1-11.4-11.4 5.1-11.4 11.4-11.4 11.4 5.1 11.4 11.4" class="st0"/>
  <path id="Fill-4196_2_" d="m539.9 101.1c0 6.3-5.1 11.4-11.4 11.4s-11.4-5.1-11.4-11.4 5.1-11.4 11.4-11.4 11.4 5.1 11.4 11.4" class="st2">
    <animate additive="replace" calcMode="linear" repeatCount="indefinite" attributeName="opacity" values="1;0.2;1" accumulate="none" dur="5s" restart="always" fill="remove"/>
  </path>
  <path id="Fill-4198_2_" d="m431.7 70.2c0 6.3-5.1 11.4-11.4 11.4s-11.4-5.1-11.4-11.4 5.1-11.4 11.4-11.4 11.4 5.1 11.4 11.4" class="st5"/>
  <path id="Fill-4200_2_" d="m566.2 70.2c0 6.3-5.1 11.4-11.4 11.4s-11.4-5.1-11.4-11.4 5.1-11.4 11.4-11.4 11.4 5.1 11.4 11.4" class="st1"/>
  <path id="Fill-4088_5_" d="m293.8 12.4c0 6.3-5.1 11.4-11.4 11.4s-11.4-5.1-11.4-11.4 5.1-11.4 11.4-11.4c6.3 0 11.4 5.1 11.4 11.4" class="st0"/>
  <path id="Fill-4130_3_" d="m320 40.5c0 6.3-5.1 11.4-11.4 11.4s-11.4-5.1-11.4-11.4 5.1-11.4 11.4-11.4c6.3 0 11.4 5.1 11.4 11.4" class="st0">
    <animate additive="replace" calcMode="linear" repeatCount="indefinite" attributeName="opacity" values="1;0.2;1" accumulate="none" dur="6s" restart="always" fill="remove"/>
  </path>
  <path id="Fill-4216_2_" d="m77.3 97.5c0 6.3-5.1 11.4-11.4 11.4s-11.4-5.1-11.4-11.4 5.1-11.4 11.4-11.4c6.3-0.1 11.4 5.1 11.4 11.4" class="st0"/>
  <path id="Fill-4096_4_" d="m404.8 12.4c0 6.3-5.1 11.4-11.4 11.4s-11.4-5.1-11.4-11.4 5.1-11.4 11.4-11.4 11.4 5.1 11.4 11.4" class="st0">
    <animate additive="replace" calcMode="linear" repeatCount="indefinite" attributeName="opacity" values="1;0.2;1" accumulate="none" dur="5s" restart="always" fill="remove"/>
  </path>
</svg>
